<svg height="512" viewBox="0 0 48 48" width="512" xmlns="http://www.w3.org/2000/svg" xmlns:xlink="http://www.w3.org/1999/xlink"><linearGradient id="linear-gradient" gradientUnits="userSpaceOnUse" x1="1.407" x2="45.405" y1="45.407" y2="1.41"><stop offset=".014" stop-color="#4279bd"/><stop offset=".1841" stop-color="#3f83ba"/><stop offset=".4759" stop-color="#389fb0"/><stop offset=".852" stop-color="#2ccba2"/><stop offset=".9134" stop-color="#2ad39f"/></linearGradient><linearGradient id="linear-gradient-2" x1="-2.969" x2="41.029" xlink:href="#linear-gradient" y1="41.031" y2="-2.966"/><linearGradient id="linear-gradient-3" x1="-13.353" x2="30.644" xlink:href="#linear-gradient" y1="30.647" y2="-13.351"/><linearGradient id="linear-gradient-4" x1="-.353" x2="43.644" xlink:href="#linear-gradient" y1="43.647" y2="-.351"/><linearGradient id="linear-gradient-5" x1="16.771" x2="60.769" xlink:href="#linear-gradient" y1="60.771" y2="16.774"/><linearGradient id="linear-gradient-6" x1="-4.5" x2="39.498" xlink:href="#linear-gradient" y1="39.5" y2="-4.498"/><linearGradient id="linear-gradient-7" x1="-.5" x2="43.498" xlink:href="#linear-gradient" y1="43.5" y2="-.498"/><linearGradient id="linear-gradient-9" x1="3.5" x2="47.498" xlink:href="#linear-gradient" y1="47.5" y2="3.503"/><linearGradient id="linear-gradient-10" x1="7.286" x2="51.284" xlink:href="#linear-gradient" y1="51.286" y2="7.289"/><g id="calendar"><path d="m37.042 45h-32.042a2.0023 2.0023 0 0 1 -2-2v-34a2.0023 2.0023 0 0 1 2-2h38a2.0023 2.0023 0 0 1 2 2v28a1 1 0 0 1 -.291.7051l-6.958 7a.9981.9981 0 0 1 -.709.2949zm-32.042-36v34h31.626l6.374-6.4126v-27.5874z" fill="url(#linear-gradient)"/><path d="m44 15.0625h-40a1 1 0 0 1 0-2h40a1 1 0 0 1 0 2z" fill="url(#linear-gradient-2)"/><path d="m13 9h-4a1 1 0 0 1 -1-1v-3a2.0023 2.0023 0 0 1 2-2h2a2.0023 2.0023 0 0 1 2 2v3a1 1 0 0 1 -1 1zm-3-2h2v-2h-2z" fill="url(#linear-gradient-3)"/><path d="m39 9h-4a1 1 0 0 1 -1-1v-3a2.0023 2.0023 0 0 1 2-2h2a2.0023 2.0023 0 0 1 2 2v3a1 1 0 0 1 -1 1zm-3-2h2v-2h-2z" fill="url(#linear-gradient-4)"/><path d="m37.042 45a1 1 0 0 1 -1-1v-7a1 1 0 0 1 1-1h6.958a1 1 0 0 1 0 2h-5.958v6a1 1 0 0 1 -1 1z" fill="url(#linear-gradient-5)"/><path d="m12 28h-4a1 1 0 0 1 -1-1v-4a1 1 0 0 1 1-1h4a1 1 0 0 1 1 1v4a1 1 0 0 1 -1 1zm-3-2h2v-2h-2z" fill="url(#linear-gradient-6)"/><path d="m20 28h-4a1 1 0 0 1 -1-1v-4a1 1 0 0 1 1-1h4a1 1 0 0 1 1 1v4a1 1 0 0 1 -1 1zm-3-2h2v-2h-2z" fill="url(#linear-gradient-7)"/><path d="m12 36h-4a1 1 0 0 1 -1-1v-4a1 1 0 0 1 1-1h4a1 1 0 0 1 1 1v4a1 1 0 0 1 -1 1zm-3-2h2v-2h-2z" fill="url(#linear-gradient-7)"/><path d="m20 36h-4a1 1 0 0 1 -1-1v-4a1 1 0 0 1 1-1h4a1 1 0 0 1 1 1v4a1 1 0 0 1 -1 1zm-3-2h2v-2h-2z" fill="url(#linear-gradient-9)"/><path d="m32 37.0615a1.808 1.808 0 0 1 -1.2871-.5332l-5.8329-5.8335a5.7821 5.7821 0 0 1 -.5078-7.7 5.6308 5.6308 0 0 1 7.6278-1.0048 5.6322 5.6322 0 0 1 7.6279 1.0049 5.7832 5.7832 0 0 1 -.5078 7.7l-5.834 5.834a1.8056 1.8056 0 0 1 -1.2861.5326zm-3.2783-14.1235c-.0576 0-.1143.0015-.1709.0044a3.6089 3.6089 0 0 0 -2.6377 1.3266 3.7687 3.7687 0 0 0 .3808 5.0118l5.7061 5.706 5.7061-5.706a3.7687 3.7687 0 0 0 .3808-5.0118 3.6089 3.6089 0 0 0 -2.6377-1.3266 3.6721 3.6721 0 0 0 -2.7422 1.0605.9994.9994 0 0 1 -1.414 0 3.643 3.643 0 0 0 -2.5713-1.0649z" fill="url(#linear-gradient-10)"/></g></svg>