<svg width="239" height="238" viewBox="0 0 239 238" fill="none" xmlns="http://www.w3.org/2000/svg">
<g clip-path="url(#clip0_52_755)">
<path d="M80.3204 181.196C80.1872 181.249 80.0501 181.292 79.9104 181.325C77.946 181.784 60.4917 185.596 52.7159 178.412C49.5796 175.514 48.8916 172.441 48.8672 170.373C48.8648 168.978 49.1457 167.597 49.6928 166.314C50.24 165.031 51.042 163.872 52.0504 162.908C52.3185 162.641 52.6368 162.43 52.987 162.288C53.3371 162.145 53.7121 162.074 54.0902 162.077C54.4682 162.081 54.8418 162.159 55.1892 162.309C55.5366 162.458 55.851 162.674 56.1141 162.946C56.3772 163.217 56.5837 163.538 56.7217 163.89C56.8598 164.242 56.9265 164.618 56.9181 164.996C56.9097 165.374 56.8264 165.746 56.6729 166.092C56.5194 166.437 56.2988 166.749 56.0239 167.009C55.5696 167.43 55.2068 167.94 54.9581 168.507C54.7093 169.074 54.5798 169.687 54.5778 170.306C54.6268 171.061 54.8309 171.798 55.1772 172.471C55.5236 173.144 56.0048 173.739 56.5909 174.218C60.7239 178.037 71.2941 177.107 76.6785 176.153C77.2293 170.58 77.3179 160.131 73.1562 156.286C71.1533 154.436 68.9325 154.066 67.0564 155.279C66.0112 156.003 65.2413 157.059 64.8717 158.276C64.502 159.492 64.5543 160.798 65.0201 161.981C65.1441 162.338 65.196 162.716 65.1728 163.093C65.1496 163.47 65.0517 163.839 64.8849 164.178C64.7181 164.517 64.4857 164.82 64.201 165.069C63.9164 165.317 63.5853 165.507 63.2268 165.626C62.8684 165.746 62.4898 165.793 62.1129 165.766C61.736 165.738 61.3684 165.635 61.0314 165.465C60.6944 165.294 60.3946 165.058 60.1495 164.77C59.9044 164.482 59.7188 164.149 59.6036 163.789C58.7506 161.402 58.7154 158.799 59.5037 156.391C60.2919 153.982 61.8588 151.903 63.9577 150.482C68.0701 147.821 73.0801 148.441 77.0319 152.091C84.8077 159.275 82.3868 176.977 82.0822 178.972C82.0079 179.464 81.8062 179.928 81.4972 180.319C81.1881 180.709 80.7824 181.011 80.3204 181.196Z" fill="#173E3A"/>
<path d="M204.825 171.869C204.124 172.149 203.341 172.141 202.646 171.845C200.344 170.864 180.083 161.894 177.6 149.173C176.369 142.869 178.866 137.398 184.119 134.897C189.58 132.288 196.272 133.917 200.383 138.84C200.638 139.126 200.833 139.46 200.957 139.822C201.08 140.185 201.129 140.568 201.101 140.95C201.074 141.332 200.969 141.705 200.794 142.045C200.62 142.386 200.378 142.688 200.084 142.934C199.791 143.179 199.45 143.363 199.084 143.474C198.718 143.586 198.333 143.622 197.952 143.582C197.571 143.541 197.202 143.424 196.868 143.239C196.533 143.053 196.239 142.801 196.003 142.5C193.14 139.072 189.205 138.807 186.577 140.052C183.707 141.418 182.48 144.343 183.209 148.076C184.672 155.586 196.752 162.751 203.098 165.775C207.836 160.577 216.329 149.383 214.866 141.892C213.904 136.965 210.539 135.484 207.708 135.743C207.335 135.777 206.958 135.737 206.6 135.625C206.242 135.514 205.91 135.333 205.622 135.093C205.334 134.852 205.096 134.558 204.921 134.226C204.747 133.894 204.64 133.531 204.606 133.157C204.572 132.784 204.612 132.407 204.723 132.049C204.835 131.691 205.016 131.359 205.256 131.071C205.496 130.783 205.79 130.545 206.122 130.37C206.455 130.196 206.818 130.089 207.191 130.055C212.659 129.558 218.886 132.685 220.471 140.797C222.956 153.517 207.56 169.453 205.8 171.227C205.523 171.506 205.191 171.725 204.825 171.869Z" fill="#173E3A"/>
<path d="M137.795 77.8048C137.381 77.9708 136.933 78.037 136.489 77.9978C135.294 77.8932 107.068 75.2954 99.3995 61.562C96.9432 57.1624 96.4517 52.4937 98.0142 48.4119C98.7918 46.4464 99.9915 44.6757 101.529 43.2248C103.066 41.7739 104.903 40.6783 106.91 40.0154C107.626 39.77 108.411 39.8192 109.091 40.1522C109.771 40.4853 110.291 41.075 110.537 41.7915C110.782 42.508 110.733 43.2926 110.4 43.9729C110.067 44.6531 109.477 45.1731 108.761 45.4186C107.544 45.8094 106.428 46.4633 105.492 47.3339C104.556 48.2045 103.823 49.2705 103.345 50.4561C102.385 52.9654 102.745 55.8461 104.384 58.7805C109.121 67.2656 126.584 71.0569 135.029 72.1033C138.57 64.3645 144.506 47.5096 139.768 39.0256C137.396 34.777 133.604 32.8665 129.624 33.9161C125.961 34.8843 122.284 38.4397 122.322 44.2125C122.326 44.5884 122.256 44.9613 122.115 45.3098C121.974 45.6584 121.766 45.9758 121.503 46.2438C121.239 46.5118 120.925 46.7251 120.579 46.8715C120.233 47.0178 119.861 47.0945 119.485 47.0969C119.11 47.0993 118.737 47.0275 118.389 46.8855C118.041 46.7436 117.724 46.5344 117.457 46.2698C117.19 46.0052 116.978 45.6906 116.833 45.3438C116.688 44.9971 116.613 44.6251 116.612 44.2493C116.564 36.7227 121.316 30.2062 128.169 28.3962C134.731 26.6663 141.087 29.6734 144.756 36.2441C152.424 49.9778 139.827 75.3676 139.287 76.4411C138.973 77.0623 138.442 77.5473 137.795 77.8048Z" fill="#173E3A"/>
<path d="M192.444 83.2901L86.9767 125.424C86.3023 125.693 85.5506 125.695 84.8746 125.43L54.3881 113.473C53.8184 113.25 53.3354 112.849 53.0105 112.33C52.6857 111.812 52.536 111.202 52.5837 110.592C52.6314 109.982 52.8738 109.403 53.2753 108.942C53.6768 108.48 54.2161 108.159 54.8136 108.027L190.767 77.851C191.468 77.6954 192.201 77.8091 192.822 78.1696C193.442 78.5302 193.904 79.111 194.115 79.7967C194.327 80.4823 194.272 81.2224 193.963 81.8698C193.654 82.5171 193.112 83.0242 192.445 83.2902L192.444 83.2901ZM85.9055 119.702L157.59 91.0645L65.1856 111.575L85.9055 119.702Z" fill="#173E3A"/>
<path d="M154.042 151.745C153.367 152.015 152.615 152.018 151.939 151.752L106.441 133.899C105.945 133.704 105.513 133.375 105.195 132.947C104.876 132.52 104.683 132.012 104.639 131.481C104.594 130.95 104.698 130.417 104.941 129.943C105.183 129.468 105.553 129.071 106.009 128.796L189.909 78.1939C190.449 77.8684 191.081 77.7306 191.707 77.802C192.333 77.8733 192.918 78.1499 193.371 78.5885C193.824 79.0271 194.118 79.6031 194.209 80.2267C194.3 80.8503 194.182 81.4865 193.874 82.0362L155.474 150.494C155.154 151.063 154.649 151.504 154.042 151.745ZM113.913 130.698L151.707 145.527L183.606 88.6611L113.913 130.698Z" fill="#173E3A"/>
<path d="M110.852 185.186C110.148 185.467 109.362 185.457 108.666 185.159C107.97 184.86 107.422 184.297 107.141 183.594L83.2658 123.831C82.9849 123.128 82.9948 122.342 83.2934 121.646C83.592 120.95 84.1549 120.401 84.8581 120.12C85.5614 119.839 86.3474 119.849 87.0433 120.148C87.7393 120.447 88.2881 121.009 88.569 121.713L106.182 165.801L104.634 131.367C104.607 130.614 104.878 129.882 105.388 129.328C105.899 128.774 106.607 128.445 107.359 128.411C108.111 128.377 108.846 128.641 109.404 129.147C109.962 129.652 110.298 130.358 110.339 131.109L112.644 182.405C112.671 182.997 112.513 183.583 112.192 184.082C111.871 184.58 111.402 184.966 110.852 185.186Z" fill="#173E3A"/>
<path d="M110.852 185.186C110.429 185.356 109.971 185.421 109.517 185.377C109.064 185.333 108.627 185.182 108.244 184.935C107.861 184.688 107.543 184.352 107.316 183.957C107.089 183.562 106.96 183.118 106.94 182.663L104.634 131.368C104.613 130.893 104.711 130.42 104.919 129.992C105.127 129.564 105.438 129.195 105.825 128.918C106.212 128.641 106.663 128.465 107.135 128.407C107.607 128.348 108.086 128.408 108.529 128.582L139.945 140.909C140.354 141.069 140.721 141.322 141.016 141.647C141.312 141.973 141.528 142.362 141.648 142.784C141.769 143.207 141.79 143.652 141.711 144.084C141.631 144.516 141.453 144.924 141.19 145.276L112.077 184.245C111.763 184.665 111.339 184.991 110.852 185.186ZM110.535 135.501L112.283 174.426L134.37 144.858L110.535 135.501Z" fill="#173E3A"/>
</g>
<defs>
<clipPath id="clip0_52_755">
<rect width="182.743" height="182.743" fill="white" transform="translate(0.998535 67.7949) rotate(-21.7764)"/>
</clipPath>
</defs>
</svg>
