<svg width="33" height="33" viewBox="0 0 33 33" fill="none" xmlns="http://www.w3.org/2000/svg">
<path d="M23.9536 0H9.04645C4.05823 0 0 4.05823 0 9.04651V23.9536C0 28.9418 4.05823 33 9.04645 33H23.9536C28.9418 33 33 28.9418 33 23.9536V9.04651C33 4.05823 28.9418 0 23.9536 0ZM31.0512 23.9536C31.0512 27.8672 27.8673 31.0512 23.9536 31.0512H9.04645C5.13279 31.0512 1.9488 27.8673 1.9488 23.9536V9.04651C1.9488 5.13279 5.13279 1.9488 9.04645 1.9488H23.9536C27.8673 1.9488 31.0512 5.13279 31.0512 9.04651V23.9536Z" fill="white"/>
<path d="M16.4999 7.44873C11.5091 7.44873 7.44873 11.5091 7.44873 16.4999C7.44873 21.4908 11.509 25.5512 16.4999 25.5512C21.4908 25.5512 25.5512 21.4907 25.5512 16.4999C25.5512 11.509 21.4908 7.44873 16.4999 7.44873ZM16.4999 23.6024C12.5836 23.6024 9.39747 20.4162 9.39747 16.4999C9.39747 12.5836 12.5836 9.39741 16.4999 9.39741C20.4163 9.39741 23.6025 12.5836 23.6025 16.4999C23.6025 20.4162 20.4163 23.6024 16.4999 23.6024Z" fill="white"/>
<path d="M26.0927 4.15747C24.5764 4.15747 23.3428 5.39117 23.3428 6.90749C23.3428 8.42382 24.5764 9.65745 26.0927 9.65745C27.6091 9.65745 28.8427 8.42375 28.8427 6.90743C28.8427 5.3911 27.6091 4.15747 26.0927 4.15747ZM26.0927 7.70858C25.651 7.70858 25.2916 7.34919 25.2916 6.90743C25.2916 6.46567 25.651 6.10628 26.0927 6.10628C26.5345 6.10628 26.8939 6.46573 26.8939 6.90743C26.8939 7.34913 26.5345 7.70858 26.0927 7.70858Z" fill="white"/>
</svg>
