<svg height="512" viewBox="0 0 48 48" width="512" xmlns="http://www.w3.org/2000/svg" xmlns:xlink="http://www.w3.org/1999/xlink"><linearGradient id="linear-gradient" gradientUnits="userSpaceOnUse" x1="-2.058" x2="41.547" y1="41.776" y2="-1.829"><stop offset=".014" stop-color="#4279bd"/><stop offset=".1841" stop-color="#3f83ba"/><stop offset=".4759" stop-color="#389fb0"/><stop offset=".852" stop-color="#2ccba2"/><stop offset=".9134" stop-color="#2ad39f"/></linearGradient><linearGradient id="linear-gradient-2" x1="-1.417" x2="42.188" xlink:href="#linear-gradient" y1="42.417" y2="-1.188"/><linearGradient id="linear-gradient-3" x1="-.053" x2="43.552" xlink:href="#linear-gradient" y1="43.781" y2=".176"/><linearGradient id="linear-gradient-4" x1="10.082" x2="53.687" xlink:href="#linear-gradient" y1="53.915" y2="10.311"/><g id="location"><path d="m24 22.2832a1.4779 1.4779 0 0 1 -1.0454-.4316l-3.4228-3.4229a3.8089 3.8089 0 0 1 -.3243-5.0732 3.7365 3.7365 0 0 1 2.6949-1.3516 3.8316 3.8316 0 0 1 2.0976.5322 3.7929 3.7929 0 0 1 2.0986-.5322 3.7391 3.7391 0 0 1 2.6944 1.3516l.0005.0009a3.81 3.81 0 0 1 -.3247 5.0723l-3.4219 3.4219a1.4793 1.4793 0 0 1 -1.0469.4326zm-1.9189-8.2832c-.0279 0-.0562.001-.0845.002a1.7075 1.7075 0 0 0 -1.2486.6289 1.7943 1.7943 0 0 0 .1973 2.3837l3.0547 3.0547 3.0547-3.0547a1.7954 1.7954 0 0 0 .1968-2.3847 1.7186 1.7186 0 0 0 -2.5445-.127.9994.9994 0 0 1 -1.414 0 1.6976 1.6976 0 0 0 -1.2119-.5029z" fill="url(#linear-gradient)"/><path d="m24 27a10 10 0 1 1 10-10 10.0114 10.0114 0 0 1 -10 10zm0-18a8 8 0 1 0 8 8 8.0092 8.0092 0 0 0 -8-8z" fill="url(#linear-gradient-2)"/><path d="m24 41a1.0013 1.0013 0 0 1 -.5239-.1484c-.5503-.3389-13.4761-8.4698-13.4761-23.8516a14 14 0 0 1 28 0c0 15.3818-12.9258 23.5127-13.4761 23.8516a1.0013 1.0013 0 0 1 -.5239.1484zm0-36a12.0134 12.0134 0 0 0 -12 12c0 12.5762 9.6221 20.123 11.999 21.7949 2.3745-1.6758 12.001-9.2449 12.001-21.7949a12.0134 12.0134 0 0 0 -12-12z" fill="url(#linear-gradient-3)"/><path d="m24 45c-7.0571 0-19-1.0527-19-5 0-3.63 9.9946-4.6074 14.2915-4.8584a1.0145 1.0145 0 0 1 .7686.2939 29.963 29.963 0 0 0 3.9399 3.3594 29.963 29.963 0 0 0 3.94-3.3594 1.0127 1.0127 0 0 1 .7686-.2939c4.2968.251 14.2914 1.2284 14.2914 4.8584 0 3.9473-11.9429 5-19 5zm-5.0366-7.835c-8.6587.5586-11.8023 2.2784-11.9654 2.8526.2955 1.0185 6.3951 2.9824 17.002 2.9824 10.5474 0 16.6377-1.9424 16.9961-2.999-.2188-.5918-3.3853-2.2832-11.9595-2.836a28.5757 28.5757 0 0 1 -4.5112 3.6856.9985.9985 0 0 1 -1.0508 0 28.5757 28.5757 0 0 1 -4.5112-3.6856z" fill="url(#linear-gradient-4)"/></g></svg>